<svg xmlns="http://www.w3.org/2000/svg" viewBox="0 0 256 256" role="img" aria-label="Variaciones de Producto">
<defs><linearGradient id="g" x1="0" x2="1" y1="0" y2="1"><stop stop-color="#006241"/><stop offset="1" stop-color="#0b8f61"/></linearGradient></defs>
<circle cx="128" cy="128" r="118" fill="#f7f1e5" stroke="#006241" stroke-width="12"/>
<circle cx="128" cy="128" r="94" fill="none" stroke="#9bc7ad" stroke-width="5"/>
<path d="M64 168h128" stroke="#006241" stroke-width="8" stroke-linecap="round"/>
<rect x="72" y="109" width="18" height="48" rx="4" fill="#006241"/><rect x="101" y="92" width="18" height="65" rx="4" fill="#1d8b5b"/><rect x="130" y="116" width="18" height="41" rx="4" fill="#006241"/><rect x="159" y="78" width="18" height="79" rx="4" fill="#1d8b5b"/>
<path d="M70 100c26-44 51 13 76-22 14-19 29-21 45-4" fill="none" stroke="#0b3d2e" stroke-width="8" stroke-linecap="round"/>
<circle cx="70" cy="100" r="7" fill="#0b3d2e"/><circle cx="105" cy="105" r="7" fill="#0b3d2e"/><circle cx="146" cy="78" r="7" fill="#0b3d2e"/><circle cx="191" cy="74" r="7" fill="#0b3d2e"/>
<circle cx="128" cy="128" r="49" fill="none" stroke="#0b3d2e" stroke-width="8" opacity=".18"/>
<text x="128" y="44" text-anchor="middle" font-size="18" font-family="Arial" font-weight="800" fill="#006241">VARIACIONES</text>
<text x="128" y="219" text-anchor="middle" font-size="15" font-family="Arial" font-weight="800" fill="#006241">ANALIZA · CONTROLA · MEJORA</text>
</svg>
